<svg id="_x31_px" enable-background="new 0 0 24 24" height="512" viewBox="0 0 24 24" width="512" xmlns="http://www.w3.org/2000/svg"><g><path d="m12 24c-2.804 0-5-5.271-5-12s2.196-12 5-12 5 5.271 5 12-2.196 12-5 12zm0-23c-1.892 0-4 4.518-4 11s2.108 11 4 11 4-4.518 4-11-2.108-11-4-11z"/></g><g><path d="m18.982 19.446c-.494 0-1.031-.043-1.605-.13-2.366-.359-5.164-1.419-7.876-2.986s-5.03-3.458-6.524-5.328c-1.595-1.994-2.081-3.771-1.37-5.002.711-1.232 2.494-1.699 5.016-1.316 2.367.359 5.164 1.42 7.877 2.986s5.03 3.458 6.524 5.328c1.594 1.994 2.08 3.771 1.369 5.002-.55.951-1.737 1.446-3.411 1.446zm-13.979-13.894c-1.277 0-2.171.327-2.53.948-.483.838-.015 2.251 1.284 3.878 1.418 1.774 3.635 3.581 6.243 5.086 2.607 1.506 5.281 2.522 7.526 2.863 2.059.313 3.517.011 4-.827.484-.838.016-2.251-1.284-3.878-1.418-1.774-3.635-3.581-6.243-5.086-2.606-1.506-5.28-2.522-7.525-2.863-.533-.081-1.025-.121-1.471-.121z"/></g><g><path d="m5.018 19.446c-1.674 0-2.861-.495-3.411-1.446-.711-1.231-.225-3.008 1.369-5.002 1.494-1.87 3.811-3.762 6.524-5.328s5.51-2.626 7.876-2.986c2.522-.383 4.305.084 5.017 1.316.711 1.231.225 3.008-1.369 5.002-1.494 1.87-3.811 3.762-6.524 5.328s-5.51 2.626-7.876 2.986c-.575.087-1.112.13-1.606.13zm13.979-13.894c-.446 0-.938.04-1.47.121-2.246.341-4.92 1.357-7.527 2.863-2.607 1.505-4.825 3.312-6.243 5.086-1.3 1.626-1.768 3.04-1.284 3.878s1.944 1.14 4 .827c2.246-.341 4.919-1.357 7.526-2.863 2.607-1.505 4.825-3.312 6.243-5.086 1.3-1.626 1.768-3.04 1.284-3.878-.358-.621-1.253-.948-2.529-.948z"/></g><g><path d="m12 14c-1.103 0-2-.897-2-2s.897-2 2-2 2 .897 2 2-.897 2-2 2zm0-3c-.551 0-1 .449-1 1s.449 1 1 1 1-.449 1-1-.449-1-1-1z"/></g></svg>